<svg width="117" height="117" viewBox="0 0 117 117" fill="none" xmlns="http://www.w3.org/2000/svg">
<g clip-path="url(#clip0_135_2514)">
<path fill-rule="evenodd" clip-rule="evenodd" d="M33.5771 74.577L39.386 61.7715H85.0178C85.0178 61.7715 97.1166 61.6386 102.326 74.577C107.536 87.5153 110.637 94.1852 110.637 94.1852H93.6262L88.855 82.2854C88.855 82.2854 86.0928 74.577 77.1873 74.577H33.5771V74.577Z" fill="black"/>
<path fill-rule="evenodd" clip-rule="evenodd" d="M31.3986 22.8145H117L107.799 42.689C107.799 42.689 102.161 54.6211 90.9333 54.8448C79.706 55.0685 33.9408 54.8448 33.9408 54.8448L17.813 94.1854H0L23.1627 42.689H87.9143C87.9143 42.689 93.8742 43.0686 93.9412 36.0593H25.5945L31.3986 22.8145V22.8145Z" fill="black"/>
</g>
<defs>
<clipPath id="clip0_135_2514">
<rect width="117" height="117" fill="white"/>
</clipPath>
</defs>
</svg>
