<svg width="62" height="66" viewBox="0 0 62 66" fill="none" xmlns="http://www.w3.org/2000/svg">
<path fill-rule="evenodd" clip-rule="evenodd" d="M52.9982 12.7988C52.9189 11.7863 52.4741 10.8301 51.7381 10.1069C50.0426 8.44073 47.2889 8.44073 45.593 10.1069C44.8571 10.8301 44.4126 11.7863 44.3333 12.7988L44.3343 35.6741H44.3302C44.2449 39.0308 42.8507 42.2318 40.4289 44.612C35.2248 49.7257 26.7752 49.7257 21.5711 44.612C19.1429 42.2259 17.7481 39.014 17.6691 35.6485H17.6657V12.7732C17.5864 11.7607 17.1429 10.8049 16.407 10.0817C14.7111 8.41517 11.9574 8.41517 10.2619 10.0817C9.52594 10.8049 9.08112 11.7607 9.00176 12.7732L9.0031 53.224C9.08246 54.2365 9.52594 55.1926 10.2619 55.9158C10.9978 56.639 11.9704 57.0758 13.0008 57.1538C13.0008 57.1538 16.526 57.1528 19.6037 57.1528C20.7975 57.1528 21.9422 57.6187 22.7862 58.4481C23.6305 59.2774 24.1046 60.4027 24.1046 61.5757C24.1046 64.0185 22.0893 66 19.6031 66H13.0008V65.9957C9.58496 65.9119 6.32751 64.5418 3.90534 62.1619C1.48351 59.782 0.0893644 56.5807 0.00400172 53.224H0V12.7732H0.00400172C0.0893644 9.41654 1.48351 6.21516 3.90534 3.83526C9.10947 -1.27842 17.5594 -1.27842 22.7632 3.83526C25.185 6.21516 26.5791 9.41654 26.6645 12.7732H26.6688V35.6485H26.6658C26.7395 36.6705 27.1853 37.6365 27.9276 38.3656C29.6232 40.0321 32.3768 40.0321 34.0724 38.3656C34.8083 37.6424 35.2531 36.6866 35.3325 35.6741L35.3312 12.7988H35.3355C35.4209 9.4421 36.815 6.24072 39.2368 3.86082C44.4406 -1.25286 52.8905 -1.25286 58.0947 3.86082C60.5165 6.24072 61.9106 9.4421 61.996 12.7988H62V44.3512C62 46.7943 59.9846 48.7748 57.4985 48.7748C55.0123 48.7748 52.9969 46.7943 52.9969 44.3512L52.9982 12.7988Z" fill="#ADABCE"/>
</svg>
