<svg width="26" height="29" viewBox="0 0 26 29" fill="none" xmlns="http://www.w3.org/2000/svg">
<path fill-rule="evenodd" clip-rule="evenodd" d="M22.2251 5.62371C22.1918 5.17882 22.0053 4.75869 21.6966 4.44093C20.9856 3.7088 19.8308 3.7088 19.1197 4.44093C18.811 4.75869 18.6246 5.17882 18.5914 5.62371L18.5918 15.675H18.5901C18.5543 17.1499 17.9697 18.5564 16.9541 19.6023C14.7717 21.8492 11.2283 21.8492 9.04594 19.6023C8.02768 18.5538 7.44275 17.1425 7.40961 15.6637H7.40822V5.61248C7.37494 5.16759 7.18896 4.74761 6.88035 4.42985C6.16916 3.69757 5.01441 3.69757 4.30336 4.42985C3.99475 4.74761 3.80821 5.16759 3.77493 5.61248L3.77549 23.3863C3.80877 23.8312 3.99475 24.2513 4.30336 24.5691C4.61197 24.8868 5.01987 25.0788 5.45195 25.113C5.45195 25.113 6.93027 25.1126 8.22092 25.1126C8.72153 25.1126 9.20157 25.3173 9.55549 25.6817C9.90955 26.0461 10.1084 26.5406 10.1084 27.056C10.1084 28.1294 9.26324 29 8.22064 29H5.45195V28.9981C4.0195 28.9613 2.65347 28.3593 1.63772 27.3136C0.622117 26.2679 0.0374754 24.8612 0.00167814 23.3863H0V5.61248H0.00167814C0.0374754 4.13757 0.622117 2.7309 1.63772 1.68519C3.8201 -0.561731 7.36361 -0.561731 9.54584 1.68519C10.5615 2.7309 11.1461 4.13757 11.1819 5.61248H11.1837V15.6637H11.1824C11.2134 16.1128 11.4003 16.5373 11.7116 16.8576C12.4226 17.5899 13.5774 17.5899 14.2884 16.8576C14.597 16.5398 14.7836 16.1199 14.8168 15.675L14.8163 5.62371H14.8181C14.8539 4.1488 15.4385 2.74214 16.4542 1.69642C18.6364 -0.5505 22.1799 -0.5505 24.3623 1.69642C25.3779 2.74214 25.9625 4.1488 25.9983 5.62371H26V19.4877C26 20.5612 25.1549 21.4314 24.1123 21.4314C23.0697 21.4314 22.2245 20.5612 22.2245 19.4877L22.2251 5.62371Z" fill="#030048"/>
</svg>
